<?xml version="1.0" encoding="UTF-8"?>
<svg width="24px" height="24px" viewBox="0 0 24 24" version="1.1" xmlns="http://www.w3.org/2000/svg">
    <g stroke="none" stroke-width="1" fill="none" fill-rule="evenodd">
        <path d="M21,6H3C1.9,6,1,6.9,1,8v8c0,1.1,0.9,2,2,2h18c1.1,0,2-0.9,2-2V8C23,6.9,22.1,6,21,6z M11,13H8v3H6v-3H3v-2h3V8h2v3h3V13z M15.5,15c-0.83,0-1.5-0.67-1.5-1.5s0.67-1.5,1.5-1.5s1.5,0.67,1.5,1.5S16.33,15,15.5,15z M19.5,15c-0.83,0-1.5-0.67-1.5-1.5s0.67-1.5,1.5-1.5s1.5,0.67,1.5,1.5S20.33,15,19.5,15z" fill="#4A90E2"/>
    </g>
</svg> 